<svg id="Calque_1" data-name="Calque 1" xmlns="http://www.w3.org/2000/svg" viewBox="0 0 798 454">
  <defs>
    <style>
      .cls-1, .cls-2 {
        fill: #fff;
      }

      .cls-2 {
        opacity: 0.7;
        isolation: isolate;
      }
    </style>
  </defs>
  <title>blockfolio</title>
  <path class="cls-1" d="M481.86,223.75v46.3H470.48v-46.3H459.92V214h10.56v-9.34c0-12.59,8.12-19.5,18.68-19.5,3.66,0,6.09.81,6.5,1.22v9.75c-.41-.41-2-.81-4.87-.81-4.06,0-8.94,2-8.94,9.75V214h13.4v10.15Zm-295.28,46.3V185.17h11v84.89ZM130.12,187.2c15.84,0,25.18,9.34,25.18,22.34,0,8.94-5.28,15-12.59,17.87a20.36,20.36,0,0,1,15,19.9c0,13-10.56,22.75-25.59,22.75H102.91V187.2Zm-1.22,36.15c9.34,0,14.62-5.69,14.62-13.4s-5.69-13-15-13H114.69v26.4Zm1.62,36.55c9.34,0,15.43-5.28,15.43-13.4s-4.87-13.4-15-13.4H114.69V259.9Zm120.63,12.18c16.65,0,28.84-12.59,28.84-30.06C280,225,268.22,212,251.16,212c-16.65,0-28.84,13-28.84,30.06S234.5,272.08,251.16,272.08Zm0-50c9.34,0,17.46,6.9,17.46,19.9s-8.12,20.31-17.46,20.31-17.46-6.9-17.46-20.31C233.69,229,241.82,222.13,251.16,222.13ZM316.55,242c0,13,8.12,19.9,17.06,19.9,10.56,0,14.22-7.31,15.84-11.78l9.75,4.06c-2.84,8.12-11,17.46-25.59,17.46-16.25,0-28.43-13-28.43-30.06,0-17.46,12.18-30.06,28.43-30.06,15,0,22.75,9.34,25.18,17.87l-10.15,4.06c-1.22-5.69-5.69-11.78-15-11.78C324.67,222.13,316.55,228.62,316.55,242Zm118.6,28-24.37-32.49,24-24h-15l-24.37,24.78V185.17h-11v84.89h11V253l7.72-7.72,18.28,24.78Zm114.54,2c16.65,0,28.84-12.59,28.84-30.06,0-17.06-11.78-30.06-28.84-30.06C533,212,520.85,224.56,520.85,242,520.85,259.09,532.63,272.08,549.69,272.08Zm0-50c9.34,0,17.46,6.9,17.46,19.9s-8.12,20.31-17.46,20.31-17.46-6.9-17.46-20.31C531.81,229,540.34,222.13,549.69,222.13Zm53.61,47.93V185.17h11v84.89Zm47.11-83.67a7.53,7.53,0,0,0-2.84-.81,4,4,0,0,0-3.66,1.62,7.3,7.3,0,0,0-1.62,3.66,5.87,5.87,0,0,0,.81,2.84,6,6,0,0,0,2.44,2,7.92,7.92,0,0,0,3.25.41,6.22,6.22,0,0,0,4.47-4.47,8.94,8.94,0,0,0-.41-3.25A10.77,10.77,0,0,0,650.41,186.38ZM652.85,214h-11v56.46h11Zm56.46,58.08c16.65,0,28.84-12.59,28.84-30.06,0-17.06-11.78-30.06-28.84-30.06-16.65,0-28.84,12.59-28.84,30.06C680.47,259.09,692.25,272.08,709.31,272.08Zm0-50c9.34,0,17.46,6.9,17.46,19.9s-8.12,20.31-17.46,20.31-17.46-6.9-17.46-20.31C691.44,229,700,222.13,709.31,222.13Z"/>
  <path class="cls-2" d="M185.36,294h-117a9,9,0,0,1-6.09-2.44,8.27,8.27,0,0,1-2.44-6.09v-117A8.33,8.33,0,0,1,68.38,160H185.77a9,9,0,0,1,6.09,2.44c1.62,1.62,2,3.66,2,6.09v5.28H191v-5.28a4,4,0,0,0-1.62-3.66,6,6,0,0,0-3.66-1.62H68.38a4,4,0,0,0-3.66,1.62,4.27,4.27,0,0,0-2,3.66V285.89a4,4,0,0,0,1.62,3.66A6,6,0,0,0,68,291.17H185.36a4,4,0,0,0,3.66-1.62,6,6,0,0,0,1.62-3.66v-2.84h3.25v2.84a9,9,0,0,1-2.44,6.09C189.83,293.61,187.8,294,185.36,294Z"/>
</svg>
