<svg id="Calque_1" data-name="Calque 1" xmlns="http://www.w3.org/2000/svg" viewBox="0 0 798 454">
  <defs>
    <style>
      .cls-1 {
        fill: #ca312c;
      }

      .cls-2 {
        fill: #91b949;
      }

      .cls-3 {
        fill: #fff;
      }
    </style>
  </defs>
  <title>coinpaprika</title>
  <g id="Layer_2" data-name="Layer 2">
    <g id="Shape_6_copy_12" data-name="Shape 6 copy 12">
      <g id="Shape_6_copy_12-2" data-name="Shape 6 copy 12-2">
        <path class="cls-1" d="M161.31,209.61a16.87,16.87,0,0,0-4.43-7.26c-8.87-10.08-16.93-13.71-30.64-7.26h-.81c-5.24.4-9.67,3.63-10.88,8.87-4.84,14.51-10.48,28.62-15.72,42.73h0c-.81,1.21-1.61,2-2.42,3.22-9.67,7.26-18.95,13.71-32.25,8.06-4.84-2-12.9-1.21-8.87,8.47a5.54,5.54,0,0,0,2,3.22,17.9,17.9,0,0,0,4.43,3.22c18.54,12.09,39.1,14.91,58.85,5.24,22.57-10.88,38.7-27.81,40.31-54.42A33.14,33.14,0,0,0,161.31,209.61Z"/>
      </g>
    </g>
    <g id="Shape_7_copy_12" data-name="Shape 7 copy 12">
      <g id="Shape_7_copy_12-2" data-name="Shape 7 copy 12-2">
        <path class="cls-2" d="M153.25,195.5a56.7,56.7,0,0,1,1.21-11.29c1.21-9.67-4-13.71-8.06-14.11a12.85,12.85,0,0,0-10.48,4,3.77,3.77,0,0,0-.4,5.24c2,2,3.63,2,4.43-2,2-6.45,9.67,0,9.27,3.22-.4,6.85-5.24,9.27-9.67,12.09s-8.06,3.63-14.91,6c-1.21.4-1.61,2-1.21,3.22a.87.87,0,0,0,.81.81,11.51,11.51,0,0,0,5.24,0c5.64-.81,7.26.81,9.27,6.45a20.61,20.61,0,0,1,10.88-1.61c3.63,1.21,3.63,3.63,5.24,5.24a1.47,1.47,0,0,0,2-.81v-.81C154.46,206.38,152.85,201.14,153.25,195.5Z"/>
      </g>
    </g>
    <g id="coinpaprika_copy_7" data-name="coinpaprika copy 7">
      <g id="coinpaprika_copy_7-2" data-name="coinpaprika copy 7-2">
        <path class="cls-3" d="M224.6,253.14a8.88,8.88,0,0,1-3.22.4h-3.22a20.42,20.42,0,0,1-5.24-.81,14.48,14.48,0,0,1-4-2.82,16.65,16.65,0,0,1-2.82-4.43,15.67,15.67,0,0,1-.81-6,23.79,23.79,0,0,1,.81-5.64,9.61,9.61,0,0,1,2.42-4.43,9.21,9.21,0,0,1,4-2.82,12.88,12.88,0,0,1,5.64-1.21,31.12,31.12,0,0,1,6,.81,35.47,35.47,0,0,1,6,2V217.67c-1.61-.4-3.63-.81-5.64-1.21a46.29,46.29,0,0,0-7.66-.4,29.29,29.29,0,0,0-10.08,1.61,21.25,21.25,0,0,0-12.5,12.5,32.3,32.3,0,0,0,0,20.16A18.41,18.41,0,0,0,206.46,262a27.1,27.1,0,0,0,9.67,1.61,43.81,43.81,0,0,0,7.26-.4,44,44,0,0,0,6.85-2V251.13c-.81.4-2,.81-2.82,1.21A5.83,5.83,0,0,1,224.6,253.14Zm55.63-31.44a18.21,18.21,0,0,0-6.85-4.43,23.65,23.65,0,0,0-9.27-1.61,27.1,27.1,0,0,0-9.67,1.61,22.87,22.87,0,0,0-7.26,4.84,21.13,21.13,0,0,0-4.43,7.66,27.83,27.83,0,0,0-1.61,10.08,31.58,31.58,0,0,0,1.61,10.48,21.13,21.13,0,0,0,4.43,7.66,18.21,18.21,0,0,0,6.85,4.43A23.65,23.65,0,0,0,263.3,264a27.1,27.1,0,0,0,9.67-1.61,22.87,22.87,0,0,0,7.26-4.84,21.13,21.13,0,0,0,4.43-7.66,32.3,32.3,0,0,0,0-20.16A19.76,19.76,0,0,0,280.23,221.7Zm-6.45,23.78a9,9,0,0,1-2,4.43,12.27,12.27,0,0,1-3.22,3.22,10.73,10.73,0,0,1-4.84,1.21,10.15,10.15,0,0,1-8.06-3.63,17,17,0,0,1-2.82-10.88,13.72,13.72,0,0,1,.81-5.64,9,9,0,0,1,2-4.43,12.27,12.27,0,0,1,3.22-3.22,10.73,10.73,0,0,1,4.84-1.21c3.22-.4,6,1.21,8.06,3.63a20,20,0,0,1,2.82,10.88A23.79,23.79,0,0,1,273.78,245.48Zm48.37-28.62H298v8.47h12.9v29H295.95v8.47h39.5v-8.47h-13.3Zm-11.69-7.66a8.43,8.43,0,0,0,2.42,1.61,6.87,6.87,0,0,0,5.64,0,8.43,8.43,0,0,0,2.42-1.61,3.48,3.48,0,0,0,1.21-2.42,6.87,6.87,0,0,0,0-5.64,8.81,8.81,0,0,0-1.21-2,8.43,8.43,0,0,0-2.42-1.61,6.87,6.87,0,0,0-5.64,0,7.41,7.41,0,0,0-4,4,6,6,0,0,0,0,5.24A8.43,8.43,0,0,0,310.46,209.21Zm71.35,10.88a11.43,11.43,0,0,0-4.43-3.22,16.17,16.17,0,0,0-6-1.21,15.11,15.11,0,0,0-4.43.4,14.32,14.32,0,0,0-3.63,1.61,22.36,22.36,0,0,0-3.22,2.42,20.19,20.19,0,0,0-2.82,3.22l-.4-6.85h-9.67v46.36h11.29V233.39a25.76,25.76,0,0,1,5.24-6,12.49,12.49,0,0,1,5.24-2.42c3.63,0,5.64,2.42,5.64,7.66v30.23h10.88v-31a39.72,39.72,0,0,0-.81-6.85A15.1,15.1,0,0,0,381.81,220.09Zm53.21,2a11.15,11.15,0,0,0-5.24-4.43,15.81,15.81,0,0,0-7.26-1.61,15.11,15.11,0,0,0-4.43.4c-1.21.4-2.82.81-3.63,1.61a22.36,22.36,0,0,0-3.22,2.42,20.19,20.19,0,0,0-2.82,3.22l-.4-6.85h-9.67V281h11.29V262.82a8.88,8.88,0,0,0,3.22.4c1.21,0,2.42.4,3.63.4a27.1,27.1,0,0,0,9.67-1.61,21.13,21.13,0,0,0,7.66-4.43,20,20,0,0,0,5.24-7.66A25.59,25.59,0,0,0,440.66,239a39.75,39.75,0,0,0-1.21-9.67C437.84,226.94,436.63,224.12,435,222.11ZM427,245.89a13.62,13.62,0,0,1-2.42,4.84,13.91,13.91,0,0,1-3.63,3.22,10.73,10.73,0,0,1-4.84,1.21,13.71,13.71,0,0,1-4-.4,9.49,9.49,0,0,1-3.22-.81V233.8a40.38,40.38,0,0,1,5.24-6,12.49,12.49,0,0,1,5.24-2.42,7.11,7.11,0,0,1,6,3.22A14.44,14.44,0,0,1,427,233a34.68,34.68,0,0,1,.4,6.45,11.51,11.51,0,0,1-.4,6.45Zm56-26.2a16.64,16.64,0,0,0-6-2.82,22.17,22.17,0,0,0-8.87-.81,60.38,60.38,0,0,0-8.87.81,53.7,53.7,0,0,0-7.66,2v8.87a28.1,28.1,0,0,1,7.66-2.42,27.43,27.43,0,0,1,8.06-.81,16.53,16.53,0,0,1,4.43.4,6.5,6.5,0,0,1,2.82,1.61,8.43,8.43,0,0,1,1.61,2.42,8.88,8.88,0,0,1,.4,3.22V235h-6a43,43,0,0,0-10.08,1.21,28.64,28.64,0,0,0-7.26,3.22,11.85,11.85,0,0,0-4,4.84c-.81,2-1.61,4-1.21,6a23.79,23.79,0,0,0,.81,5.64,12.11,12.11,0,0,0,7.26,7.26,16.71,16.71,0,0,0,6.45,1.21,19.63,19.63,0,0,0,4.84-.4,16.85,16.85,0,0,0,4-1.61,18.93,18.93,0,0,0,3.63-2.42c1.21-.81,2-2,3.22-2.82l.4,6h9.27V231.78a18.83,18.83,0,0,0-1.21-6.85,10.24,10.24,0,0,0-3.63-5.24Zm-6.45,29a70.18,70.18,0,0,1-5.64,4.84,8.06,8.06,0,0,1-9.67,0,4.8,4.8,0,0,1-1.61-4.43,6.86,6.86,0,0,1,.4-2.82,8.79,8.79,0,0,1,1.61-2,8.1,8.1,0,0,1,3.22-1.61,19.63,19.63,0,0,1,4.84-.4h6.85Zm60.87-26.6a11.15,11.15,0,0,0-5.24-4.43,15.81,15.81,0,0,0-7.26-1.61,15.11,15.11,0,0,0-4.43.4,16.85,16.85,0,0,0-4,1.61,22.36,22.36,0,0,0-3.22,2.42,20.19,20.19,0,0,0-2.82,3.22l-.4-6.85h-9.67V281h11.29V262.82a8.88,8.88,0,0,0,3.22.4c1.21,0,2.42.4,3.63.4a23.65,23.65,0,0,0,9.27-1.61,21.13,21.13,0,0,0,7.66-4.43,19.1,19.1,0,0,0,4.84-7.66A25.59,25.59,0,0,0,541.84,239a39.75,39.75,0,0,0-1.21-9.67,16.8,16.8,0,0,0-3.22-7.26Zm-8.06,23.78a13.62,13.62,0,0,1-2.42,4.84A13.91,13.91,0,0,1,523.3,254a10.73,10.73,0,0,1-4.84,1.21,13.71,13.71,0,0,1-4-.4,9.49,9.49,0,0,1-3.22-.81V233.8a25.76,25.76,0,0,1,5.24-6,12.49,12.49,0,0,1,5.24-2.42,7.11,7.11,0,0,1,6,3.22,14.44,14.44,0,0,1,1.61,4.43,17.45,17.45,0,0,1,.4,6.45,11.51,11.51,0,0,1-.4,6.45ZM589,220.49a12.6,12.6,0,0,0-4.43-3.63,16.17,16.17,0,0,0-6-1.21,19.63,19.63,0,0,0-4.84.4,12.07,12.07,0,0,0-4,1.61,22.36,22.36,0,0,0-3.22,2.42,9.7,9.7,0,0,0-2.42,3.22l-.4-6.85H553.53v46.36h11.29V233.39a32.11,32.11,0,0,1,6-6.85,8.49,8.49,0,0,1,5.24-2,5.11,5.11,0,0,1,2.42.4,4,4,0,0,1,2,1.61c.4.81.81,2,1.21,2.82a16.53,16.53,0,0,1,.4,4.43h11.29a27.43,27.43,0,0,0-.81-8.06,29.41,29.41,0,0,1-3.63-5.24Zm39.91-3.63H604.32v8.47h12.9v29H603.11v8.47h39.5v-8.47h-13.3Zm-11.29-7.66a8.43,8.43,0,0,0,2.42,1.61,6.87,6.87,0,0,0,5.64,0,7.41,7.41,0,0,0,4-4,6.87,6.87,0,0,0,0-5.64,7.41,7.41,0,0,0-4-4,6.87,6.87,0,0,0-5.64,0,7.41,7.41,0,0,0-4,4,6.87,6.87,0,0,0,0,5.64,3.7,3.7,0,0,0,1.61,2.42Zm77.8,7.66H681.72l-16.12,19.35V198.73H654.31v64.09h11.29v-23l16.93,23H697l-20.16-25Zm47.16,7.66a11,11,0,0,0-3.63-4.84,16.64,16.64,0,0,0-6-2.82,22.17,22.17,0,0,0-8.87-.81,65.92,65.92,0,0,0-8.87.81,53.7,53.7,0,0,0-7.66,2v8.87a28.1,28.1,0,0,1,7.66-2.42,27.43,27.43,0,0,1,8.06-.81,16.54,16.54,0,0,1,4.43.4,6.5,6.5,0,0,1,2.82,1.61A8.43,8.43,0,0,1,732.1,229a8.88,8.88,0,0,1,.4,3.22V235h-6a43,43,0,0,0-10.08,1.21,28.64,28.64,0,0,0-7.26,3.22,11.85,11.85,0,0,0-4,4.84,16.89,16.89,0,0,0-1.61,6,23.79,23.79,0,0,0,.81,5.64,12.11,12.11,0,0,0,7.26,7.26,16.71,16.71,0,0,0,6.45,1.21,19.63,19.63,0,0,0,4.84-.4,16.85,16.85,0,0,0,4-1.61,18.93,18.93,0,0,0,3.63-2.42,20.19,20.19,0,0,0,3.22-2.82l.4,6h9.67V231.78a21.09,21.09,0,0,0-1.21-7.26Zm-10.08,24.19a70.18,70.18,0,0,1-5.64,4.84,8.06,8.06,0,0,1-9.67,0,4.8,4.8,0,0,1-1.61-4.43,6.86,6.86,0,0,1,.4-2.82,8.79,8.79,0,0,1,1.61-2,8.1,8.1,0,0,1,3.22-1.61,19.63,19.63,0,0,1,4.84-.4h6.85Z"/>
      </g>
    </g>
  </g>
</svg>
