<svg id="Calque_1" data-name="Calque 1" xmlns="http://www.w3.org/2000/svg" viewBox="0 0 798 454">
  <defs>
    <style>
      .cls-1 {
        fill: #fff;
        fill-opacity: 0.85;
      }
    </style>
  </defs>
  <title>coinmarketcap</title>
  <path class="cls-1" d="M159.09,238.41a6.14,6.14,0,0,1-6.27.42c-2.32-1.31-3.59-4.38-3.59-8.64V217.43c0-6.16-2.44-10.55-6.51-11.73-6.9-2-12.1,6.44-14,9.61L116.5,235V210.92c-.14-5.55-1.94-8.87-5.36-9.87-2.27-.66-5.65-.4-8.95,4.64l-27.28,43.8A48.13,48.13,0,0,1,69.36,227c0-26.39,21.15-47.85,47.14-47.85s47.13,21.47,47.13,47.85c0,0,0,.09,0,.13s0,.09,0,.13c.25,5.11-1.41,9.18-4.54,11.15Zm15-11.41h0v-.26c-.15-32.14-25.93-58.22-57.61-58.22S58.89,194.75,58.89,227s25.84,58.49,57.61,58.49a57,57,0,0,0,39.17-15.6,5.37,5.37,0,0,0,.28-7.51,5.18,5.18,0,0,0-7.32-.36l-.08.07a46.6,46.6,0,0,1-67.12-3.17l24.6-39.5v18.21c0,8.75,3.39,11.57,6.24,12.4s7.2.26,11.77-7.16l13.53-21.94c.43-.71.83-1.32,1.2-1.85v11.09c0,8.18,3.28,14.72,9,17.94a16.47,16.47,0,0,0,16.89-.68C171,243.4,174.46,236,174.1,227Zm80.2-20a5.66,5.66,0,0,1,2.58,4.4,5,5,0,0,1-4.89,5,5.85,5.85,0,0,1-1.84-.37,18.73,18.73,0,0,0-11-3.74c-9.59,0-16.22,7.86-16.22,17.59s6.64,17.5,16.22,17.5a18,18,0,0,0,12.26-5,5,5,0,0,1,2.86-.94,4.6,4.6,0,0,1,4.61,4.68,5,5,0,0,1-2.31,4,27.24,27.24,0,0,1-17.33,6.55,27.14,27.14,0,0,1,0-54.27A26.69,26.69,0,0,1,254.31,207Zm27,11.32c10,0,18.53,8.52,18.53,19s-8.48,19.37-18.53,19.37A19.55,19.55,0,0,1,262,237.34,19.23,19.23,0,0,1,281.28,218.34Zm-.09,29c4.43,0,8.21-4.21,8.21-9.92s-3.78-9.26-8.21-9.26c-4.79,0-8.76,3.46-8.76,9.26S276.39,247.35,281.19,247.35Zm24.94,3.55V224.15a5.28,5.28,0,0,1,5.16-5.33,5.35,5.35,0,0,1,5.26,5.33v26.76a5.35,5.35,0,0,1-5.26,5.33A5.28,5.28,0,0,1,306.13,250.91Zm-.83-42.2a6.13,6.13,0,0,1,6-6.27,6.23,6.23,0,0,1,6.18,6.27,6.13,6.13,0,0,1-6.18,6.08A6,6,0,0,1,305.3,208.71Zm31.21,27.7v14.5a5.35,5.35,0,0,1-5.26,5.33,5.28,5.28,0,0,1-5.16-5.33v-28a4.13,4.13,0,0,1,4.06-4.12,4,4,0,0,1,4,4.12,15.39,15.39,0,0,1,11.43-4.58c10.42,0,15,7.86,15,16.75v15.81a5.35,5.35,0,0,1-5.26,5.33,5.28,5.28,0,0,1-5.16-5.33V236.4c0-4.58-.55-8.42-7.1-8.42-4.61,0-6.55,3.84-6.55,8.42Zm57.95,5.52a3.39,3.39,0,0,1-2.67-1.31l-12.17-13.19v23.49a5.35,5.35,0,0,1-5.26,5.33,5.28,5.28,0,0,1-5.16-5.33V204.4a2,2,0,0,1,1.94-1.31,3.42,3.42,0,0,1,2.21,1.31l19.36,21.8a1.85,1.85,0,0,0,3.32,0l19.36-21.81a3.41,3.41,0,0,1,2.21-1.31,2,2,0,0,1,1.94,1.31v46.5a5.28,5.28,0,0,1-5.16,5.33,5.35,5.35,0,0,1-5.26-5.33V227.42L397,240.61a3.32,3.32,0,0,1-2.49,1.31Zm50.11,5.43c4.7,0,8.66-4.21,8.66-9.92s-4.05-9.45-8.66-9.45-8.3,3.84-8.3,9.45S440,247.35,444.57,247.35Zm11.06,4.77-.19-1.22c-2,4-8.48,5.8-12.63,5.8-9.77,0-17-8.89-17-19.37s7.37-19,17.52-19a16.15,16.15,0,0,1,12.08,5.8l.19-1.22a4,4,0,0,1,4-4.12,4.12,4.12,0,0,1,4.05,4.12v29.2a4.12,4.12,0,0,1-4.06,4.12,4,4,0,0,1-4-4.12ZM492.56,228h-1.1c-6.55.38-7.84,4.12-7.84,8.42v14.5a5.35,5.35,0,0,1-5.26,5.33,5.28,5.28,0,0,1-5.16-5.33v-28a4.12,4.12,0,0,1,4.06-4.12,4,4,0,0,1,4,4.12c3.87-3.65,7-4.4,10.23-4.58h1a4.82,4.82,0,0,1,.09,9.64Zm40.16,20.5a4.74,4.74,0,0,1,.74,2.52,5.45,5.45,0,0,1-5.16,5.24c-1.84,0-3.41-1.4-4.61-2.9l-12-13.94v11.51a5.36,5.36,0,0,1-5.26,5.33,5.28,5.28,0,0,1-5.16-5.33V208.43a5.27,5.27,0,0,1,5.16-5.33,5.35,5.35,0,0,1,5.26,5.33v26.48l12-13.29c1.2-1.4,2.67-2.81,4.52-2.81a5.27,5.27,0,0,1,5,5.15,4.58,4.58,0,0,1-.65,2.43L523,236.78l9.68,11.7Zm20.43-20.31c-2.86,0-7.47,1.5-7.47,5.89h15c0-4.49-4.79-5.89-7.56-5.89Zm13.64,12.54H545.67c0,6.27,6,7.21,8.66,7.21a18.27,18.27,0,0,0,6.82-1.31,5.06,5.06,0,0,1,2.67-.84,4.32,4.32,0,0,1,4.24,4.31,4.47,4.47,0,0,1-2.3,3.74c-3.23,2.34-7.38,2.9-11.34,2.9-10.51,0-19.27-5.71-19.27-18.9,0-10.38,5.35-19.46,17.79-19.46,10,0,17.7,6.55,17.89,18.25a4.12,4.12,0,0,1-4.06,4.12Zm29,16h-2.86c-7.93,0-12.54-3.46-12.54-15.91V228h-2.67a4.82,4.82,0,0,1,0-9.64h2.67v-9.92a5.28,5.28,0,0,1,5.16-5.33,5.36,5.36,0,0,1,5.26,5.33v9.92h4.33a4.82,4.82,0,0,1,0,9.64h-4.33v10.76c0,7.11.37,8.61,3.5,8.61h1.47a4.66,4.66,0,0,1,4.61,4.68,4.72,4.72,0,0,1-4.61,4.68ZM646.27,207a5.66,5.66,0,0,1,2.58,4.4,5,5,0,0,1-4.89,5,5.83,5.83,0,0,1-1.84-.37,18.73,18.73,0,0,0-11-3.74c-9.59,0-16.23,7.86-16.23,17.59s6.64,17.5,16.23,17.5a18,18,0,0,0,12.26-5,5,5,0,0,1,2.86-.94,4.6,4.6,0,0,1,4.61,4.68,5,5,0,0,1-2.3,4,27.25,27.25,0,0,1-17.33,6.55,27.14,27.14,0,1,1,15-49.69Zm26.42,40.33c4.7,0,8.66-4.21,8.66-9.92s-4.06-9.45-8.67-9.45-8.3,3.84-8.3,9.45,3.69,9.92,8.3,9.92Zm11.06,4.77-.18-1.22c-2,4-8.48,5.8-12.63,5.8-9.77,0-17-8.89-17-19.37s7.38-19,17.52-19a16.16,16.16,0,0,1,12.08,5.8l.18-1.22a4,4,0,0,1,4-4.12,4.12,4.12,0,0,1,4.06,4.12v29.2a4.12,4.12,0,0,1-4.06,4.12A4,4,0,0,1,683.74,252.13Zm36.65-4.77c4.61,0,8.3-4.4,8.3-9.92S725,228,720.4,228s-8.67,3.74-8.67,9.45S715.69,247.35,720.4,247.35Zm-8.67,6.27v13.29a5.35,5.35,0,0,1-5.26,5.33,5.28,5.28,0,0,1-5.16-5.33v-44a4.13,4.13,0,0,1,4.06-4.12c2.21,0,4,1.87,4,4.49a16.61,16.61,0,0,1,12.26-5c10.14,0,17.52,8.52,17.52,19s-7.19,19.37-17,19.37c-3,0-7.56-.94-10.42-3.09Z"/>
</svg>
