<svg id="Calque_1" data-name="Calque 1" xmlns="http://www.w3.org/2000/svg" viewBox="0 0 798 454">
  <defs>
    <style>
      .cls-1 {
        fill: #8cbf84;
      }

      .cls-2 {
        fill: #de7875;
      }

      .cls-3 {
        fill: #dcdcdc;
      }
    </style>
  </defs>
  <title>coin360</title>
  <path class="cls-1" d="M120.93,178.19H59.86v97.64h61.08Z"/>
  <path class="cls-2" d="M157.57,178.18H133.14v61h24.43Z"/>
  <path class="cls-3" d="M157.57,251.41H133.14v24.41h24.43Z"/>
  <path class="cls-3" d="M258.17,256.86l-.29.14a39.33,39.33,0,0,1-24.72,8.47c-22.42.14-37.51-15.36-37.51-38.48,0-22.69,14.8-38.62,35.78-38.62,9.63,0,17.25,2.3,23.86,7.18l.29.14,5.75-9.33-.29-.14c-7.19-6.17-17.53-9.48-29.75-9.48-14.66,0-27,5-35.78,14.65-8.34,9-12.93,21.68-12.93,35.61,0,30,20,50.25,49.58,50.25,12.22,0,24.43-4.31,30.9-10.91l.14-.14-5-9.33Z"/>
  <path class="cls-3" d="M321.82,176.75c-13.94,0-26.59,5.17-35.78,14.5S272,213.22,272,227c0,29.15,21,50.25,49.87,50.25,13.8,0,26.44-5,35.5-14.21s14.23-22,14.23-36C371.69,197.85,350.71,176.75,321.82,176.75ZM358.61,227c0,22.4-15.52,38.62-36.79,38.62a35.74,35.74,0,0,1-26.16-11.06A39.34,39.34,0,0,1,285,227c0-10.77,3.74-20.68,10.49-27.71a36,36,0,0,1,26.3-10.91c21,0,36.79,16.66,36.79,38.62Z"/>
  <path class="cls-3" d="M401.87,178.18H389.51v97.64h12.36Z"/>
  <path class="cls-3" d="M496.58,178.18v76.1l-60.21-76-.14-.14h-9.77v97.64h11.64V200l60.21,75.81h9.92V178.18H496.58Z"/>
  <path class="cls-3" d="M579.49,226.43a28.45,28.45,0,0,0-17.25-8.33l22.13-31v-8.9H531.06v11.63h37.8l-24,36.33H547c16.81,0,27.59,8,27.59,20.53a18.76,18.76,0,0,1-19,19c-8.77,0-16.67-4.59-22.27-12.92l-.14-.29-6.75,8.33.14.14c5.89,12.06,19.11,16.37,29.32,16.37,18,0,30.9-12.78,30.9-30.58C587,238.63,584.37,231.6,579.49,226.43Z"/>
  <path class="cls-3" d="M634.82,215.51c-9.92,0-17.68,4.16-22.27,11.63,4.89-24.55,22.85-37.47,38.08-41.35l.29-.14-4.74-8.9H646c-11.5,2.73-23.14,10.19-31.76,20.68a67.33,67.33,0,0,0-15.66,43.79c0,9.76,3.16,18.81,8.77,25.27,6.18,7,14.95,10.77,25.15,10.77,14.95,0,30.32-11.77,30.32-31.59,0-17.52-11.78-30.15-28-30.15Zm15.66,30.87c0,10.77-7.9,19.1-18.11,19.1-9.92,0-21.56-6.32-21.56-24.41,2.44-7.32,9.63-14.79,20.12-14.79C642.87,226.43,650.48,234.32,650.48,246.38Z"/>
  <path class="cls-3" d="M706.24,177c-20.55,0-31.76,17.8-31.76,50,0,15.22,2.59,27.42,7.76,35.9,5.46,9.33,13.65,13.93,24.43,13.93,20.26,0,31.47-17.8,31.47-50S726.79,177,706.24,177Zm19.54,50c0,26.56-6,39.05-19.11,39.05S687,253,687,227c0-26.27,6.32-39.05,19.4-39.05S725.78,200.44,725.78,227Z"/>
</svg>
