<svg id="Calque_1" data-name="Calque 1" xmlns="http://www.w3.org/2000/svg" viewBox="0 0 798 454">
  <defs>
    <style>
      .cls-1 {
        fill: #fff;
      }
    </style>
  </defs>
  <title>coinlib</title>
  <g id="Page-1">
    <path id="logo_light" data-name="logo light" class="cls-1" d="M101.32,137.55q25.35-2,50.71-2,24.85,0,49.71,1.94a42.54,42.54,0,0,1,39.11,39.11q1.94,24.85,1.94,49.71,0,25.35-2,50.71a42.54,42.54,0,0,1-38.22,39q-25.26,2.5-50.52,2.5a512.77,512.77,0,0,1-51.52-2.6,42.54,42.54,0,0,1-38.05-38.05,512.77,512.77,0,0,1-2.6-51.52q0-25.26,2.5-50.52A42.54,42.54,0,0,1,101.32,137.55ZM152.8,163.9c-35.67,0-64.58,28.25-64.58,63.1s28.91,63.1,64.58,63.1c28.92,0,53.4-18.57,61.62-44.17q-10.23-5.48-28.06,0c-17.83,5.48-19.22,18.93-33.56,18.93-21.4,0-38.75-17-38.75-37.86s17.35-37.86,38.75-37.86c14.34,0,20.58,14.94,33.56,18.93q13,4,28.06,0C206.19,182.47,181.71,163.9,152.8,163.9Zm116.73,74.19q0-43.12,41.13-43.12,17.28,0,29.33,5.65l-6.07,21.77a65.06,65.06,0,0,0-23.26-4.32q-17,0-17,20V246q0,20,17,20a65.06,65.06,0,0,0,23.26-4.32L340,283.45q-12,5.65-29.33,5.65-41.13,0-41.13-43.12Zm83.09,0q0-43.12,41.13-43.12t41.13,43.12V246q0,43.12-41.13,43.12T352.61,246Zm24.1,7.89q0,20,17,20t17-20v-7.89q0-20-17-20t-17,20Zm74.78-51h24.1V289.1h-24.1Zm0-35.73h24.1v27h-24.1Zm40.71,41q10.88-5.32,37-5.32,37,0,37,35.23V289.1h-24.1V230.19q0-12.13-12.88-12.13-4,0-7.15.25t-5.73.66V289.1H492.2ZM582.77,172l24.1-5.65V289.1h-24.1ZM623.48,195h24.1V289.1h-24.1Zm0-35.73h24.1v27h-24.1ZM664.2,172l24.1-5.65v29.75q4.24-1.16,12.88-1.16,37,0,37,39.13v15.79q0,39.22-37,39.22-26.42,0-37-5.9ZM714,234.1q0-16-12.88-16-4,0-7.15.25t-5.73.66v46.11q2.58.42,5.73.66t7.15.25Q714,266,714,249.88Z"/>
  </g>
</svg>
