<svg id="Calque_1" data-name="Calque 1" xmlns="http://www.w3.org/2000/svg" viewBox="0 0 798 454">
  <defs>
    <style>
      .cls-1 {
        fill: #fff;
      }
    </style>
  </defs>
  <title>delta</title>
  <path class="cls-1" d="M157.53,150.21a10.28,10.28,0,0,1,10.85,10.84v88.06a54.78,54.78,0,0,1-7.19,27.82,53,53,0,0,1-19.5,19.67,53.54,53.54,0,0,1-27.48,7.18,54.59,54.59,0,0,1-27.66-7.18,51.81,51.81,0,0,1-19.61-19.68,55.36,55.36,0,0,1-7.09-27.81,58.57,58.57,0,0,1,6.59-27.79,49.79,49.79,0,0,1,18.15-19.6,50.31,50.31,0,0,1,47.07-2.37,48.28,48.28,0,0,1,15,11.16V161.05a10.45,10.45,0,0,1,3.11-7.86A10.75,10.75,0,0,1,157.53,150.21ZM114.22,214a32.19,32.19,0,0,0-17,4.59,33.15,33.15,0,0,0-12,12.57,36.44,36.44,0,0,0-4.42,18,37,37,0,0,0,4.42,18.07,33,33,0,0,0,12,12.66,32.7,32.7,0,0,0,45.89-12.66,37.65,37.65,0,0,0,4.33-18.07,37.09,37.09,0,0,0-4.33-18A32.27,32.27,0,0,0,114.22,214ZM283,194.63q15.15,0,26.23,6.71a44.31,44.31,0,0,1,17,18.76q5.91,12,5.9,27.47a9.06,9.06,0,0,1-2.82,6.8,9.83,9.83,0,0,1-7.07,2.69H249.92a32.84,32.84,0,0,0,11.73,20.07q9.88,8.08,24.22,8.08a36.71,36.71,0,0,0,11.77-2.07,35.12,35.12,0,0,0,10.05-5.05,11,11,0,0,1,7-2.34,9.26,9.26,0,0,1,6.44,2.16c2.53,2.11,3.84,4.57,3.84,7.33a8,8,0,0,1-3.47,6.57,54.47,54.47,0,0,1-16.64,8.66A60.11,60.11,0,0,1,257,296.81a50.78,50.78,0,0,1-20-19.39,55,55,0,0,1-7.19-28.11,58,58,0,0,1,6.79-28.18,49.19,49.19,0,0,1,18.94-19.5A54,54,0,0,1,283,194.63Zm0,18.59q-13.77,0-22.26,7.48-8.14,7.15-10.57,18.93h62q-1.88-11.84-9.21-19C297.88,215.7,291.23,213.22,283,213.22Zm119.32-52.36a10.66,10.66,0,1,1,21.32,0V266.3q0,6.9,2.57,11.28c1.64,2.8,3.65,4.14,6.11,4.14h4.83a9,9,0,0,1,7,3,11,11,0,0,1,2.67,7.61,9.26,9.26,0,0,1-4.08,7.75,16.55,16.55,0,0,1-10.06,2.9h-.39a27,27,0,0,1-15.54-4.71,30.58,30.58,0,0,1-10.69-13.16,45.64,45.64,0,0,1-3.76-18.85Zm138.53,103.7a18.82,18.82,0,0,0,4,12.31,12,12,0,0,0,9.67,4.85h6.57a8.61,8.61,0,0,1,6.64,3,11,11,0,0,1,2.67,7.61,9.68,9.68,0,0,1-3.54,7.71A13.25,13.25,0,0,1,558,303h-3.48a32.85,32.85,0,0,1-17.83-5.08,35.31,35.31,0,0,1-12.63-13.8,41.58,41.58,0,0,1-4.56-19.58V217.85h-7.9a10.3,10.3,0,0,1-7.25-2.58,8.54,8.54,0,0,1-2.83-6.52,9,9,0,0,1,2.83-6.91,10.3,10.3,0,0,1,7.25-2.58h7.9V172.44a10.66,10.66,0,1,1,21.32,0v26.82h15.45a10.3,10.3,0,0,1,7.25,2.58,9,9,0,0,1,2.83,6.91,8.54,8.54,0,0,1-2.83,6.52,10.3,10.3,0,0,1-7.25,2.58H540.82ZM684,194.63a53.54,53.54,0,0,1,27.48,7.18A53,53,0,0,1,731,221.49a54.77,54.77,0,0,1,7.19,27.82v43.07a10.85,10.85,0,1,1-21.71,0v-4.48a49.78,49.78,0,0,1-62.08,8.79,49.79,49.79,0,0,1-18.15-19.6,58.57,58.57,0,0,1-6.59-27.79,55.36,55.36,0,0,1,7.09-27.81,51.81,51.81,0,0,1,19.61-19.68A54.59,54.59,0,0,1,684,194.63ZM684,214a32.19,32.19,0,0,0-17,4.59,33,33,0,0,0-12,12.66,37,37,0,0,0-4.42,18.07,36.44,36.44,0,0,0,4.42,18,33.15,33.15,0,0,0,12,12.57,32.8,32.8,0,0,0,45.89-12.56,37.09,37.09,0,0,0,4.33-18,37.65,37.65,0,0,0-4.33-18.07A32.11,32.11,0,0,0,684,214Z"/>
</svg>
