<svg id="Calque_1" data-name="Calque 1" xmlns="http://www.w3.org/2000/svg" viewBox="0 0 798 454">
  <defs>
    <style>
      .cls-1 {
        fill: #4bc1be;
      }

      .cls-2 {
        fill: #fff;
      }
    </style>
  </defs>
  <title>livecoinwatch</title>
  <path class="cls-1" d="M349.45,209.55a23.68,23.68,0,0,0-7.71-5.21,27,27,0,0,0-20.05,0,25,25,0,0,0-7.91,5.4,28.15,28.15,0,0,0-5.21,7.91,26.59,26.59,0,0,0,0,18.89,21.89,21.89,0,0,0,4.82,7.52l6.75-12.73,6.94,6.75,7.52-18.32-3.28-1.35,4.43-3.28,4.43-3.28.58,5.4.58,5.4-3.28-1.35-9.83,23.52-7.33-7.33-4.82,8.87a26,26,0,0,0,5,2.89,27,27,0,0,0,20.05,0,23.33,23.33,0,0,0,12.92-13.11,26.59,26.59,0,0,0,0-18.89A17.64,17.64,0,0,0,349.45,209.55Z"/>
  <path class="cls-2" d="M59.86,250.81H93.4V243.1H68.34V202.8H59.86v48Zm46.47-48v47.82h8.48V202.8Zm44.35,36.83L136.21,202.8H127L146.81,251h7.33L174,202.8h-9.06l-14.27,36.83Zm70.76-36.83H186v47.82h35.86V243.1H194.24V230.18h24.1v-7.52h-24.1V210.32h27.19Z"/>
  <path class="cls-2" d="M429.08,236,403.24,202.8h-7.71v47.82h8.29V216.68l26.41,34.13h7.13v-48h-8.29V236ZM297.58,243.1l-5.4-5.4a32.19,32.19,0,0,1-6.17,4.63,15.47,15.47,0,0,1-7.52,1.74,14,14,0,0,1-6.36-1.35,16,16,0,0,1-5-3.66,16.87,16.87,0,0,1-3.28-5.4,19.07,19.07,0,0,1-1.16-6.75,18,18,0,0,1,1.16-6.56,16.87,16.87,0,0,1,3.28-5.4,16,16,0,0,1,5-3.66,14,14,0,0,1,6.36-1.35,15.23,15.23,0,0,1,7.33,1.74,32,32,0,0,1,6.17,4.24l5.4-6.17a28.19,28.19,0,0,0-3.66-3.08,18.14,18.14,0,0,0-4.24-2.31,30.8,30.8,0,0,0-5-1.54,28.58,28.58,0,0,0-6-.58,24.48,24.48,0,0,0-10,1.93,22.25,22.25,0,0,0-7.71,5.4,24,24,0,0,0-5,7.91A26.72,26.72,0,0,0,254,227.1a22.68,22.68,0,0,0,1.93,9.64,24,24,0,0,0,5,7.91,23.68,23.68,0,0,0,7.71,5.21,22.68,22.68,0,0,0,9.64,1.93,30.51,30.51,0,0,0,6.17-.58,19.19,19.19,0,0,0,5-1.74,34,34,0,0,0,4.43-2.7l3.66-3.66Zm73.27-40.3v47.82h8.48V202.8Z"/>
  <path class="cls-2" d="M490.58,238.28,479.21,202.8h-9.06L486.92,251h7.33L506,216.49,517.77,251h7.33l16.77-48.2H533l-11.38,35.48-11.76-35.67h-7.13l-12.15,35.67Zm81.75-35.86h-7.71l-21,48.2h8.68l5-11.57h22.56l4.82,11.57h8.87l-21.21-48.2Zm4.24,29.31H560l8.29-19.09,8.29,19.09Zm42.61-21h15.23V203H595.47v7.71H610.7v40.1h8.48v-40.1Zm66.71,32.39-5.4-5.4a32.19,32.19,0,0,1-6.17,4.63,15.47,15.47,0,0,1-7.52,1.74,14,14,0,0,1-6.36-1.35,16,16,0,0,1-5-3.66,16.87,16.87,0,0,1-3.28-5.4A19.07,19.07,0,0,1,651,226.9a18,18,0,0,1,1.16-6.56,16.87,16.87,0,0,1,3.28-5.4,16,16,0,0,1,5-3.66,14,14,0,0,1,6.36-1.35,15.23,15.23,0,0,1,7.33,1.74,32,32,0,0,1,6.17,4.24l5.4-6.17a28.2,28.2,0,0,0-3.66-3.08,18.14,18.14,0,0,0-4.24-2.31,30.8,30.8,0,0,0-5-1.54,28.58,28.58,0,0,0-6-.58,24.48,24.48,0,0,0-10,1.93,22.25,22.25,0,0,0-7.71,5.4,24,24,0,0,0-5,7.91,26.72,26.72,0,0,0-1.74,9.64,22.68,22.68,0,0,0,1.93,9.64,24,24,0,0,0,5,7.91,23.68,23.68,0,0,0,7.71,5.21,22.68,22.68,0,0,0,9.64,1.93,30.51,30.51,0,0,0,6.17-.58,19.19,19.19,0,0,0,5-1.74,34,34,0,0,0,4.43-2.7c1.16-1.16,2.51-2.31,3.66-3.66Zm43.77-12.53v20.24h8.48v-48h-8.48v19.86H706.72V202.8h-8.48v47.82h8.48V230.57Z"/>
</svg>
