<svg id="Calque_1" data-name="Calque 1" xmlns="http://www.w3.org/2000/svg" viewBox="0 0 798 454">
  <defs>
    <style>
      .cls-1 {
        fill: #3f92c5;
      }

      .cls-2 {
        fill: #0f77b7;
      }
    </style>
  </defs>
  <title>what-to-mine</title>
  <g>
    <path class="cls-1" d="M176.77,245A63.79,63.79,0,1,1,53.26,222.57H67l.23,1.54,7.67,58.31a2.15,2.15,0,0,0,1.51,2,5.48,5.48,0,0,0,1,.11H91.49a2.72,2.72,0,0,0,2.59-1.67l21.17-45.56.43,4.47,4.11,40.64c.17,1.24.69,1.87,1.64,2a2.54,2.54,0,0,0,.66.07H136a2.8,2.8,0,0,0,2.75-1.83l28.44-71.44c.49.77,1,1.56,1.4,2.4A63.39,63.39,0,0,1,176.77,245Zm0,0"/>
    <path class="cls-2" d="M67,222.57l.23,1.54H52.74c.22-.5.43-1,.65-1.54Zm48.29,14.74.43,4.47-20,43.62a2.71,2.71,0,0,1-2.6,1.74H78.89A2.21,2.21,0,0,1,76.43,285l-.06-.52a4.17,4.17,0,0,0,1,.11H91.49a2.73,2.73,0,0,0,2.61-1.67Zm53.32-23.63-28.14,71.58a2.79,2.79,0,0,1-2.75,1.88h-13.9c-1.37,0-2.14-.64-2.3-2.19l-.06-.49a2.64,2.64,0,0,0,.66.07H136a2.8,2.8,0,0,0,2.75-1.83l28.44-71.44c.49.77,1,1.56,1.42,2.4Zm0,0"/>
    <path class="cls-2" d="M113,181.16a63.6,63.6,0,0,0-50,24.17H80.07a5.23,5.23,0,0,1,1,.11l.4.16a1,1,0,0,1,.32.22,1.63,1.63,0,0,1,.25.25,1.7,1.7,0,0,1,.16.28.58.58,0,0,1,.16.32.94.94,0,0,1,.12.38,3.16,3.16,0,0,1,.07.4l6.07,46.46,0,0v.06l1-2.23v0L110.22,207a3.14,3.14,0,0,1,.72-1,1.88,1.88,0,0,1,.63-.41,1.91,1.91,0,0,1,.38-.14,3.48,3.48,0,0,1,.86-.11h14.72a2.78,2.78,0,0,1,.66.13,1.61,1.61,0,0,1,.38.14,1.53,1.53,0,0,1,.75.88.33.33,0,0,1,.05.17s0,.07,0,.12,0,.09.06.12.06.36.09.56l4.11,41.29,1.24-3.07v0l19.65-49.08A63.53,63.53,0,0,0,113,181.16ZM244.9,238.75l3.9,24c.07.47.14,1.31.2,2.5s.14,3.65.25,7.36c.45-1.46,1-3,1.6-4.58s1.35-3.39,2.21-5.37l10-23.86h14.62L256.23,285H241.89l-4.11-24c-.07-.43-.2-1.15-.38-2.12-.52-2.95-.93-5.89-1.22-8.85-.65,2.14-1.29,4.08-1.88,5.83s-1.2,3.42-1.83,4.94L222.51,285H208.24L197.6,238.75h14.67l4.38,23c.4,2.06.68,4,.9,5.64s.36,3.39.43,5.15c.48-1.92,1-3.76,1.54-5.53s1.17-3.5,1.83-5.17l8.87-23.06ZM278.2,285l8.55-73.09h13.16l-3,26c-.18,1.44-.4,2.87-.65,4.31s-.57,2.82-.91,4.17a34,34,0,0,1,9.14-7,21.5,21.5,0,0,1,9.57-2.17,18.63,18.63,0,0,1,8.85,1.85,10.88,10.88,0,0,1,5.08,5.51,13.59,13.59,0,0,1,1,4.36,45.11,45.11,0,0,1-.45,7.61l-.16,1.46-3.16,27H311.72l2.68-22.88c.67-5.67.45-9.45-.66-11.26s-3.27-2.73-6.46-2.73a12,12,0,0,0-5.25,1.15,12.49,12.49,0,0,0-4.28,3.27,12.84,12.84,0,0,0-2.22,3.77,30.55,30.55,0,0,0-1.29,6.47l-.22,1.85L291.65,285Zm96.51-23.2q.72-6.23-2-9.86t-8-3.63a12.16,12.16,0,0,0-9,3.61c-2.37,2.41-3.79,5.7-4.29,9.88s.17,7.43,2,9.75,4.49,3.5,8.16,3.5a12.18,12.18,0,0,0,9-3.5q3.47-3.48,4.2-9.75Zm9.55,23.2h-13l1-6.65a19.43,19.43,0,0,1-16.94,8.48q-9.21,0-14-6.82T337.71,262q1.37-11.69,7.69-18.23a21.52,21.52,0,0,1,16.16-6.54,15.9,15.9,0,0,1,8.75,2.32,15.67,15.67,0,0,1,5.73,6.88l.9-7.63h12.73Zm14.27,0,4.18-35.74h-6.46l1.24-10.52H404l1.79-15.37h13.43l-1.79,15.37h6.46l-1.24,10.52h-6.45L412,285Zm29.84,0,4.19-35.74h-6.47l1.24-10.52h6.46l1.8-15.37H449l-1.81,15.37h6.46l-1.24,10.52H446L441.81,285ZM494.26,262c.45-3.77-.3-6.79-2.24-9s-4.76-3.36-8.46-3.36a13.19,13.19,0,0,0-9.23,3.34A14.06,14.06,0,0,0,470,262c-.43,3.77.29,6.79,2.19,9.05s4.72,3.39,8.42,3.39a13.21,13.21,0,0,0,9.24-3.39,14,14,0,0,0,4.38-9.05Zm13.67.09a27,27,0,0,1-9.37,17.74,28.4,28.4,0,0,1-19.27,7.06c-7.53,0-13.43-2.35-17.76-7.06s-6.07-10.63-5.22-17.74a26.86,26.86,0,0,1,9.42-17.72,28.5,28.5,0,0,1,19.36-7.13q11.23,0,17.67,7T507.93,262m20.69,23H515.18l5.41-46.26H534l-.85,7.25a27.2,27.2,0,0,1,7.83-6.7,18.58,18.58,0,0,1,8.75-2.12q5.76,0,9.08,2.37a10.82,10.82,0,0,1,4.29,7.11,27.17,27.17,0,0,1,8.11-7.09,19,19,0,0,1,9.21-2.39,16.45,16.45,0,0,1,8.12,1.82,10.69,10.69,0,0,1,4.67,5.46,14.78,14.78,0,0,1,.88,4.47,49.93,49.93,0,0,1-.47,7.59l-.16,1.46-3.16,27H576.9l2.68-22.88c.67-5.62.52-9.36-.4-11.22s-2.84-2.77-5.69-2.77a9.19,9.19,0,0,0-8,3.86q-2.77,3.85-3.82,12.64L559.32,285H545.87l2.68-22.88c.65-5.42.54-9.1-.3-11s-2.57-2.87-5.17-2.87a9.53,9.53,0,0,0-8.19,3.89c-1.92,2.59-3.2,6.75-3.88,12.52Zm75.06,0,5.42-46.26h13.4L617.07,285Zm6.46-65.26a8.66,8.66,0,0,1,3-5.53,8.51,8.51,0,0,1,5.78-2.3,6.87,6.87,0,0,1,7,7.83,9.16,9.16,0,0,1-8.85,7.87,6.58,6.58,0,0,1-5.24-2.35,6.94,6.94,0,0,1-1.67-5.51ZM630.7,285l5.41-46.26h13.16l-.84,7.25a29.13,29.13,0,0,1,8.58-6.66,21.53,21.53,0,0,1,9.52-2.16,18.9,18.9,0,0,1,8.82,1.82,11.33,11.33,0,0,1,5.12,5.55,13.59,13.59,0,0,1,1,4.36,45.22,45.22,0,0,1-.45,7.61l-.16,1.46-3.16,27H664.23l2.68-22.88c.67-5.67.45-9.45-.66-11.26s-3.27-2.73-6.47-2.73a12,12,0,0,0-5.24,1.15,12.44,12.44,0,0,0-4.28,3.27,12.84,12.84,0,0,0-2.22,3.77,30.5,30.5,0,0,0-1.3,6.47l-.22,1.85L644.16,285Zm94.85-27.93c-.06-2.92-.85-5.12-2.42-6.61s-3.86-2.24-6.88-2.24a11.28,11.28,0,0,0-11.74,8.85Zm12.33,8.12H703.15c.14,3.34,1.06,5.82,2.75,7.47s4.16,2.48,7.4,2.48a14.2,14.2,0,0,0,6.5-1.42,14,14,0,0,0,5-4.27l10.2,5.41a29.54,29.54,0,0,1-10.2,9,28.36,28.36,0,0,1-13.12,2.95q-11.23,0-17-6.7t-4.45-18a27.86,27.86,0,0,1,9-17.91,26.32,26.32,0,0,1,18.39-7c7.36,0,12.91,2.21,16.68,6.59s5.19,10.36,4.31,17.94c-.06.45-.12.9-.22,1.35s-.23,1.19-.43,2.14Zm0,0"/>
  </g>
</svg>
