<svg id="Calque_1" data-name="Calque 1" xmlns="http://www.w3.org/2000/svg" viewBox="0 0 798 454">
  <defs>
    <style>
      .cls-1 {
        fill: none;
      }

      .cls-2 {
        fill: #080808;
      }

      .cls-3 {
        fill: #bfbfb8;
      }

      .cls-4 {
        fill: #e9eaa6;
      }
    </style>
  </defs>
  <title>Artboard 1</title>
  <g>
    <path class="cls-1" d="M679.81,210.78a27.29,27.29,0,0,0-.61-5.48,31.22,31.22,0,0,0-8.21-1.22H641.78v21.3h21.6C674.64,225.38,679.81,220.21,679.81,210.78Z"/>
    <path class="cls-1" d="M483.87,251.24a31.52,31.52,0,0,0,11.87-2.13,35.16,35.16,0,0,0,9.74-6.09,26.11,26.11,0,0,0,9.13-19.78,23.05,23.05,0,0,0-2.43-11,22.69,22.69,0,0,0-2.13-3.65,28.63,28.63,0,0,0-6.69-3.65,31.52,31.52,0,0,0-11.87-2.13A30.48,30.48,0,0,0,479.61,205a35.16,35.16,0,0,0-9.74,6.09,25.42,25.42,0,0,0-6.69,9.13,27.35,27.35,0,0,0-2.43,11,23.05,23.05,0,0,0,2.43,11c.61,1.22,1.52,2.43,2.13,3.65a47,47,0,0,0,6.69,3.65A48.45,48.45,0,0,0,483.87,251.24Z"/>
    <path class="cls-1" d="M190,210.78a27.29,27.29,0,0,0-.61-5.48,31.22,31.22,0,0,0-8.21-1.22H151.61v21.3h21.6C184.47,225.38,190,220.21,190,210.78Z"/>
    <path class="cls-1" d="M353.95,242.42c4-4.56,6.39-11.26,6.39-20.39,0-6.39-.91-11.26-3.35-15.52-3.65-2.13-8.21-3-14-3H321.7v46.25h13.69C343.6,249.72,349.69,247.29,353.95,242.42Z"/>
    <polygon class="cls-1" points="243.2 237.55 268.15 237.55 255.67 213.52 243.2 237.55"/>
    <rect class="cls-2" x="71.59" y="179.74" width="7.61" height="4.26"/>
    <rect class="cls-2" x="42.69" y="196.17" width="15.21" height="7.61"/>
    <polygon class="cls-2" points="123.93 191.61 123.93 196.17 71.59 196.17 71.59 261.89 65.51 261.89 65.51 269.19 79.2 269.19 79.2 203.78 130.62 203.78 130.62 191.61 123.93 191.61"/>
    <polygon class="cls-2" points="144.01 237.55 144.01 261.89 138.23 261.89 138.23 269.19 151.62 269.19 151.62 245.16 166.83 245.16 162.26 237.55 144.01 237.55"/>
    <path class="cls-2" d="M210.34,218.08q0-15.52-11-21.91c2.13,3.65,3.35,8.52,3.35,14.3,0,16.43-8.82,25.25-26.17,26.77l25.25,39.86H189.65l4.87,7.61h14.91l-25.25-39.86C201.51,243.64,210.34,234.51,210.34,218.08Z"/>
    <path class="cls-2" d="M180.82,203.78A31.22,31.22,0,0,1,189,205c-2.13-5.78-7-8.82-15.52-8.82H144.31v28.9h7.61v-21.6l28.9.3Z"/>
    <polygon class="cls-2" points="225.25 249.72 218.55 261.89 215.21 261.89 211.25 269.19 226.16 269.19 232.85 257.33 278.8 257.33 274.54 249.72 225.25 249.72"/>
    <polygon class="cls-2" points="255.37 188.57 305.26 277.11 293.4 277.11 297.35 284.71 312.87 284.71 257.19 185.52 255.37 188.57"/>
    <polygon class="cls-2" points="249.89 202.56 231.63 237.55 243.2 237.55 255.67 213.52 249.89 202.56"/>
    <path class="cls-2" d="M343,203.78c5.78,0,10.34.91,14,3a9.88,9.88,0,0,0-3-4c-4-4.26-10.34-6.39-18.56-6.39h-21.3V250h7.61V203.78Z"/>
    <path class="cls-2" d="M367.64,198.61c4,6.09,6.09,14,6.09,23.73,0,13.08-3.65,22.82-10.34,29.51-7,6.69-17.34,10-31.34,10H308.61v7.61h31c14,0,24.34-3.35,31.34-10s10.34-16.43,10.34-29.51c0-12.78-3.65-22.52-10.34-28.9C369.77,200.13,368.86,199.52,367.64,198.61Z"/>
    <polygon class="cls-2" points="434.88 261.89 390.15 261.89 390.15 269.19 442.49 269.19 442.49 257.33 434.88 257.33 434.88 261.89"/>
    <polygon class="cls-2" points="395.93 196.17 395.93 209.56 403.54 209.56 403.54 203.78 436.1 203.78 436.1 191.61 428.49 191.61 428.49 196.17 395.93 196.17"/>
    <polygon class="cls-2" points="395.93 221.73 395.93 249.72 403.54 249.72 403.54 229.03 436.1 229.03 436.1 217.17 428.49 217.17 428.49 221.73 395.93 221.73"/>
    <path class="cls-2" d="M532.24,215h0a34.1,34.1,0,0,0-9.74-12.78c-.61-.61-1.83-1.52-2.43-2.13a36.62,36.62,0,0,1,4.56,7.3,38.7,38.7,0,0,1,3.65,15.52,34.23,34.23,0,0,1-3.65,15.52,35.83,35.83,0,0,1-9.74,12.78,51.78,51.78,0,0,1-14,8.82,46,46,0,0,1-17,3.35,41.53,41.53,0,0,1-17-3.35c-4.26-1.83-8.21-3.65-11.26-6.69a20.89,20.89,0,0,0,5.17,5.17,38.5,38.5,0,0,0,14,8.52,46,46,0,0,0,17,3.35,40.58,40.58,0,0,0,17-3.35,47.49,47.49,0,0,0,14-8.82,44.54,44.54,0,0,0,9.74-12.78,38.14,38.14,0,0,0,2.74-7.61,38.7,38.7,0,0,1-3.65-15.52A20.37,20.37,0,0,1,532.24,215Z"/>
    <path class="cls-2" d="M460.44,230.55a23.05,23.05,0,0,1,2.43-11,24.5,24.5,0,0,1,6.69-9.13,35.16,35.16,0,0,1,9.74-6.09,34.12,34.12,0,0,1,23.73,0,23.61,23.61,0,0,1,6.69,3.65,24.23,24.23,0,0,0-4.56-5.17,35.16,35.16,0,0,0-9.74-6.09,31.52,31.52,0,0,0-11.87-2.13,30.48,30.48,0,0,0-11.87,2.13,35.16,35.16,0,0,0-9.74,6.09,25.42,25.42,0,0,0-6.69,9.13,27.35,27.35,0,0,0-2.43,11,23.05,23.05,0,0,0,2.43,11,23.51,23.51,0,0,0,6.69,8.82,21.32,21.32,0,0,0,3,2.43c-.61-1.22-1.52-2.43-2.13-3.65A32,32,0,0,1,460.44,230.55Z"/>
    <polygon class="cls-2" points="620.78 232.99 613.48 232.99 613.48 277.11 607.7 277.11 607.7 284.71 621.09 284.71 621.09 261.89 620.78 261.89 620.78 232.99"/>
    <path class="cls-2" d="M582.14,195.26a20.7,20.7,0,0,0-6.09-.61,33.61,33.61,0,0,0-12.47,2.13,35.16,35.16,0,0,0-9.74,6.09,25.42,25.42,0,0,0-6.69,9.13,27.35,27.35,0,0,0-2.43,11,23.05,23.05,0,0,0,2.43,11,21.36,21.36,0,0,0,6.69,8.82,13.51,13.51,0,0,0,3.35,2.43c-.61-1.22-1.52-2.43-2.13-3.65a27.35,27.35,0,0,1-2.43-11,23.87,23.87,0,0,1,2.43-11,24.5,24.5,0,0,1,6.69-9.13,35.16,35.16,0,0,1,9.74-6.09A32.56,32.56,0,0,1,584,202.26a51.21,51.21,0,0,1,6.09.61A72.31,72.31,0,0,1,598,205.3l7-10a40.58,40.58,0,0,0-10-4l-4.56,6.39C587,196.48,584.27,195.87,582.14,195.26Z"/>
    <path class="cls-2" d="M588.53,261.59a43.24,43.24,0,0,1-12.78,1.83,40.58,40.58,0,0,1-17-3.35,47.92,47.92,0,0,1-11.56-6.69,44.06,44.06,0,0,0,5.17,5.48,41.23,41.23,0,0,0,14,8.52,46,46,0,0,0,17,3.35,43.24,43.24,0,0,0,12.78-1.83c1.22-.61,2.43-.61,4-1.22V256.42A56,56,0,0,1,588.53,261.59Z"/>
    <path class="cls-2" d="M600.09,240.29v-2.74H588.83v7.61h6.09A39.18,39.18,0,0,0,600.09,240.29Z"/>
    <path class="cls-2" d="M671,203.78A31.22,31.22,0,0,1,679.2,205c-2.13-5.78-7-8.82-15.52-8.82H634.47v28.9h7.61v-21.6l28.9.3Z"/>
    <polygon class="cls-2" points="634.17 237.55 634.17 261.89 628.39 261.89 628.39 269.19 641.77 269.19 641.77 245.16 657.29 245.16 652.42 237.55 634.17 237.55"/>
    <path class="cls-2" d="M700.5,218.08q0-15.52-11-21.91c2.13,3.65,3.35,8.52,3.35,14.3,0,16.43-8.82,25.25-26.17,26.77L692,277.11H679.81l4.87,7.61h14.91l-25.25-39.86C691.67,243.64,700.5,234.51,700.5,218.08Z"/>
    <polygon class="cls-2" points="715.71 221.73 715.71 249.72 723.32 249.72 723.32 229.03 755.87 229.03 755.87 217.17 748.27 217.17 748.27 221.73 715.71 221.73"/>
    <polygon class="cls-2" points="715.71 196.17 715.71 209.56 723.32 209.56 723.32 203.78 755.87 203.78 755.87 191.61 748.27 191.61 748.27 196.17 715.71 196.17"/>
    <polygon class="cls-2" points="754.65 257.33 754.65 261.89 709.63 261.89 709.63 269.19 762.26 269.19 762.26 257.33 754.65 257.33"/>
    <polygon class="cls-3" points="71.59 196.17 123.93 196.17 123.93 191.61 123.93 184 79.2 184 71.59 184 71.59 179.74 71.59 172.14 57.9 172.14 57.9 184 35.08 184 35.08 196.17 42.69 196.17 57.9 196.17 57.9 203.78 57.9 261.89 65.51 261.89 71.59 261.89 71.59 196.17"/>
    <path class="cls-3" d="M176.56,237.25c17.34-1.22,26.17-10.34,26.17-26.77,0-5.78-.91-10.65-3.35-14.3C194.82,188,185.39,184,171.7,184H130.62v77.89H144V237.55h18.26l4.87,7.61,20.08,31.95h14.91Zm-24.95-11.87H144V196.17h29.21c8.52,0,14,3,15.52,8.82a16.85,16.85,0,0,1,.61,5.48c0,9.74-5.48,14.6-16.73,14.6l-21,.3Z"/>
    <path class="cls-3" d="M255.37,188.57l-5.78-10.65-45.94,84h15.21l6.69-12.17h49.29l4.26,7.61,11.26,20.08h15.21Zm-12.17,49H231.63l18.56-34.69L256,214.12l12.47,24-25.25-.61Z"/>
    <path class="cls-3" d="M363.38,251.85c7-6.69,10.34-16.43,10.34-29.51,0-9.74-2.13-17.65-6.09-23.73a35,35,0,0,0-4.26-5.17C356.68,187,346,184,331.43,184H300.7v77.89h31C346,261.89,356.38,258.55,363.38,251.85Zm-49.29-2.13V196.17h21.3c8.21,0,14.6,2.13,18.56,6.39a19.53,19.53,0,0,1,3,4c2.13,4,3.35,9.13,3.35,15.52,0,9.13-2.13,15.82-6.39,20.39-4,4.56-10.34,7-18.56,7H321.7l-7.61.3Z"/>
    <polygon class="cls-3" points="434.88 257.33 434.88 249.72 403.54 249.72 395.93 249.72 395.93 221.73 428.49 221.73 428.49 217.17 428.49 209.56 403.54 209.56 395.93 209.56 395.93 196.17 428.49 196.17 428.49 191.61 428.49 184 382.55 184 382.55 261.89 390.15 261.89 434.88 261.89 434.88 257.33"/>
    <path class="cls-4" d="M483.87,263.11a40.58,40.58,0,0,0,17-3.35,47.49,47.49,0,0,0,14-8.82,44.54,44.54,0,0,0,9.74-12.78,38.7,38.7,0,0,0,3.65-15.52,34.23,34.23,0,0,0-3.65-15.52,36.62,36.62,0,0,0-4.56-7.3,20.89,20.89,0,0,0-5.17-5.17,38.5,38.5,0,0,0-14-8.52,46,46,0,0,0-17-3.35,40.58,40.58,0,0,0-17,3.35,53.8,53.8,0,0,0-14,8.52,50.75,50.75,0,0,0-9.74,12.78,38.7,38.7,0,0,0-3.65,15.52,34.23,34.23,0,0,0,3.65,15.52,35.83,35.83,0,0,0,9.74,12.78c.61.61,1.83,1.52,2.43,2.13a68.7,68.7,0,0,0,11.26,6.69A48.46,48.46,0,0,0,483.87,263.11ZM462,242.72a27.16,27.16,0,0,1-6.69-8.82,26.25,26.25,0,0,1-2.43-11,23.05,23.05,0,0,1,2.43-11,24.5,24.5,0,0,1,6.69-9.13,35.16,35.16,0,0,1,9.74-6.09,34.12,34.12,0,0,1,23.73,0,35.16,35.16,0,0,1,9.74,6.09,24.23,24.23,0,0,1,4.56,5.17c.61,1.22,1.52,2.43,2.13,3.65a27.35,27.35,0,0,1,2.43,11,23.05,23.05,0,0,1-2.43,11,21.36,21.36,0,0,1-6.69,8.82,35.16,35.16,0,0,1-9.74,6.09,31.52,31.52,0,0,1-11.87,2.13,30.48,30.48,0,0,1-11.87-2.13,28.63,28.63,0,0,1-6.69-3.65A11.12,11.12,0,0,1,462,242.72Z"/>
    <path class="cls-4" d="M613.48,233v-7.61H581.23v12.17h18.86v2.74a39.18,39.18,0,0,1-5.17,4.87c-1.83,1.22-3.65,2.13-5.17,3.35a33.9,33.9,0,0,1-25.86.91,28.63,28.63,0,0,1-6.69-3.65c-.91-.61-2.13-1.52-3.35-2.43a26.11,26.11,0,0,1-9.13-19.78,23.87,23.87,0,0,1,2.43-11,24.5,24.5,0,0,1,6.69-9.13,35.16,35.16,0,0,1,9.74-6.09,32.56,32.56,0,0,1,12.47-2.13,51.21,51.21,0,0,1,6.09.61,72.31,72.31,0,0,1,7.91,2.43l4.56-6.39,2.43-3.65a38.41,38.41,0,0,0-10.34-4,67.12,67.12,0,0,0-11.26-1.22,40.58,40.58,0,0,0-17,3.35,53.8,53.8,0,0,0-14,8.52,44.54,44.54,0,0,0-9.74,12.78,38.14,38.14,0,0,0-2.74,7.61,33.4,33.4,0,0,0-.61,7.91A35.18,35.18,0,0,0,535,238.77v.3a35.83,35.83,0,0,0,9.74,12.78c.61.61,1.52,1.22,2.43,2.13a44.06,44.06,0,0,0,11.56,6.69,46,46,0,0,0,17,3.35,46,46,0,0,0,24.34-7v20.08h13.69l-.3-44.12Z"/>
    <path class="cls-4" d="M666.72,237.25c17.34-1.22,26.17-10.34,26.17-26.77,0-5.78-.91-10.65-3.35-14.3C685,188,675.55,184,661.86,184H620.78v77.89h13.39V237.55h18.26l4.87,7.61,20.08,31.95h14.91Zm-24.95-11.87h-7.61V196.17h29.21c8.52,0,14,3,15.52,8.82a16.85,16.85,0,0,1,.61,5.48c0,9.74-5.48,14.6-16.73,14.6l-21,.3Z"/>
    <polygon class="cls-4" points="754.65 257.33 754.65 249.72 723.32 249.72 715.71 249.72 715.71 221.73 748.27 221.73 748.27 217.17 748.27 209.56 723.32 209.56 715.71 209.56 715.71 196.17 748.27 196.17 748.27 191.61 748.27 184 702.02 184 702.02 261.89 709.63 261.89 754.65 261.89 754.65 257.33"/>
  </g>
</svg>
